<mxfile host="app.diagrams.net" agent="Mozilla/5.0 (Windows NT 10.0; Win64; x64) AppleWebKit/537.36 (KHTML, like Gecko) Chrome/134.0.0.0 Safari/537.36" version="26.1.1" pages="5">
  <diagram name="STG Game Architecture" id="2_dH7Gha-qrLDw0nbdTG">
    <mxGraphModel dx="1050" dy="522" grid="1" gridSize="10" guides="1" tooltips="1" connect="1" arrows="1" fold="1" page="1" pageScale="1" pageWidth="827" pageHeight="1169" math="0" shadow="0">
      <root>
        <mxCell id="0" />
        <mxCell id="1" parent="0" />
        <mxCell id="hgP8jkAVEX2isAG4Q-ha-17" value="Player&lt;div&gt;&lt;br&gt;&lt;/div&gt;" style="shape=umlActor;verticalLabelPosition=bottom;verticalAlign=top;html=1;outlineConnect=0;" vertex="1" parent="1">
          <mxGeometry x="140" y="360" width="30" height="60" as="geometry" />
        </mxCell>
        <mxCell id="hgP8jkAVEX2isAG4Q-ha-19" value="玩家可执行的操作" style="rounded=0;whiteSpace=wrap;html=1;align=center;labelPosition=center;verticalLabelPosition=top;verticalAlign=bottom;fontSize=19;" vertex="1" parent="1">
          <mxGeometry x="255" y="185" width="270" height="400" as="geometry" />
        </mxCell>
        <mxCell id="hgP8jkAVEX2isAG4Q-ha-20" value="发射子弹" style="ellipse;whiteSpace=wrap;html=1;" vertex="1" parent="1">
          <mxGeometry x="330" y="200" width="120" height="80" as="geometry" />
        </mxCell>
        <mxCell id="hgP8jkAVEX2isAG4Q-ha-21" value="拾取道具" style="ellipse;whiteSpace=wrap;html=1;" vertex="1" parent="1">
          <mxGeometry x="330" y="290" width="120" height="80" as="geometry" />
        </mxCell>
        <mxCell id="hgP8jkAVEX2isAG4Q-ha-22" value="使用技能" style="ellipse;whiteSpace=wrap;html=1;" vertex="1" parent="1">
          <mxGeometry x="330" y="380" width="120" height="80" as="geometry" />
        </mxCell>
        <mxCell id="hgP8jkAVEX2isAG4Q-ha-23" value="操作移动" style="ellipse;whiteSpace=wrap;html=1;" vertex="1" parent="1">
          <mxGeometry x="330" y="470" width="120" height="80" as="geometry" />
        </mxCell>
        <mxCell id="hgP8jkAVEX2isAG4Q-ha-25" value="" style="endArrow=classic;html=1;rounded=0;exitX=0.5;exitY=0.5;exitDx=0;exitDy=0;exitPerimeter=0;entryX=0;entryY=0.5;entryDx=0;entryDy=0;" edge="1" parent="1" source="hgP8jkAVEX2isAG4Q-ha-17" target="hgP8jkAVEX2isAG4Q-ha-20">
          <mxGeometry width="50" height="50" relative="1" as="geometry">
            <mxPoint x="180" y="370" as="sourcePoint" />
            <mxPoint x="230" y="320" as="targetPoint" />
          </mxGeometry>
        </mxCell>
        <mxCell id="hgP8jkAVEX2isAG4Q-ha-26" value="" style="endArrow=classic;html=1;rounded=0;exitX=0.5;exitY=0.5;exitDx=0;exitDy=0;exitPerimeter=0;entryX=0.047;entryY=0.41;entryDx=0;entryDy=0;entryPerimeter=0;" edge="1" parent="1" source="hgP8jkAVEX2isAG4Q-ha-17" target="hgP8jkAVEX2isAG4Q-ha-21">
          <mxGeometry width="50" height="50" relative="1" as="geometry">
            <mxPoint x="490" y="370" as="sourcePoint" />
            <mxPoint x="540" y="320" as="targetPoint" />
          </mxGeometry>
        </mxCell>
        <mxCell id="hgP8jkAVEX2isAG4Q-ha-27" value="" style="endArrow=classic;html=1;rounded=0;exitX=0.5;exitY=0.5;exitDx=0;exitDy=0;exitPerimeter=0;" edge="1" parent="1" source="hgP8jkAVEX2isAG4Q-ha-17" target="hgP8jkAVEX2isAG4Q-ha-22">
          <mxGeometry width="50" height="50" relative="1" as="geometry">
            <mxPoint x="165" y="400" as="sourcePoint" />
            <mxPoint x="346" y="333" as="targetPoint" />
          </mxGeometry>
        </mxCell>
        <mxCell id="hgP8jkAVEX2isAG4Q-ha-28" value="" style="endArrow=classic;html=1;rounded=0;exitX=0.5;exitY=0.5;exitDx=0;exitDy=0;exitPerimeter=0;" edge="1" parent="1" source="hgP8jkAVEX2isAG4Q-ha-17" target="hgP8jkAVEX2isAG4Q-ha-23">
          <mxGeometry width="50" height="50" relative="1" as="geometry">
            <mxPoint x="165" y="400" as="sourcePoint" />
            <mxPoint x="341" y="422" as="targetPoint" />
          </mxGeometry>
        </mxCell>
      </root>
    </mxGraphModel>
  </diagram>
  <diagram id="_E_xGK0c_0218jY60z5D" name="第 2 页">
    <mxGraphModel dx="1050" dy="522" grid="1" gridSize="10" guides="1" tooltips="1" connect="1" arrows="1" fold="1" page="1" pageScale="1" pageWidth="827" pageHeight="1169" math="0" shadow="0">
      <root>
        <mxCell id="0" />
        <mxCell id="1" parent="0" />
        <mxCell id="KjYFWQZY33O9OGNggIBK-1" value="Enemy&lt;div&gt;&lt;br&gt;&lt;/div&gt;" style="shape=umlActor;verticalLabelPosition=bottom;verticalAlign=top;html=1;outlineConnect=0;" vertex="1" parent="1">
          <mxGeometry x="150" y="740" width="30" height="60" as="geometry" />
        </mxCell>
        <mxCell id="KjYFWQZY33O9OGNggIBK-5" value="敌人会触发的操作" style="rounded=0;whiteSpace=wrap;html=1;labelPosition=center;verticalLabelPosition=top;align=center;verticalAlign=bottom;fontSize=19;" vertex="1" parent="1">
          <mxGeometry x="250" y="567.5" width="260" height="405" as="geometry" />
        </mxCell>
        <mxCell id="KjYFWQZY33O9OGNggIBK-6" value="随机射击" style="ellipse;whiteSpace=wrap;html=1;" vertex="1" parent="1">
          <mxGeometry x="320" y="585" width="120" height="80" as="geometry" />
        </mxCell>
        <mxCell id="KjYFWQZY33O9OGNggIBK-7" value="随机移动" style="ellipse;whiteSpace=wrap;html=1;" vertex="1" parent="1">
          <mxGeometry x="320" y="680" width="120" height="80" as="geometry" />
        </mxCell>
        <mxCell id="KjYFWQZY33O9OGNggIBK-8" value="与玩家碰撞自爆" style="ellipse;whiteSpace=wrap;html=1;" vertex="1" parent="1">
          <mxGeometry x="320" y="780" width="120" height="80" as="geometry" />
        </mxCell>
        <mxCell id="KjYFWQZY33O9OGNggIBK-10" value="" style="endArrow=classic;html=1;rounded=0;entryX=0;entryY=0.5;entryDx=0;entryDy=0;" edge="1" parent="1" target="KjYFWQZY33O9OGNggIBK-6">
          <mxGeometry width="50" height="50" relative="1" as="geometry">
            <mxPoint x="170" y="770" as="sourcePoint" />
            <mxPoint x="520" y="770" as="targetPoint" />
          </mxGeometry>
        </mxCell>
        <mxCell id="KjYFWQZY33O9OGNggIBK-11" value="" style="endArrow=classic;html=1;rounded=0;exitX=0.5;exitY=0.5;exitDx=0;exitDy=0;exitPerimeter=0;entryX=0;entryY=0.5;entryDx=0;entryDy=0;" edge="1" parent="1" source="KjYFWQZY33O9OGNggIBK-1" target="KjYFWQZY33O9OGNggIBK-7">
          <mxGeometry width="50" height="50" relative="1" as="geometry">
            <mxPoint x="190" y="770" as="sourcePoint" />
            <mxPoint x="348" y="663" as="targetPoint" />
          </mxGeometry>
        </mxCell>
        <mxCell id="KjYFWQZY33O9OGNggIBK-12" value="" style="endArrow=classic;html=1;rounded=0;exitX=0.5;exitY=0.5;exitDx=0;exitDy=0;exitPerimeter=0;entryX=0;entryY=0.5;entryDx=0;entryDy=0;" edge="1" parent="1" source="KjYFWQZY33O9OGNggIBK-1" target="KjYFWQZY33O9OGNggIBK-8">
          <mxGeometry width="50" height="50" relative="1" as="geometry">
            <mxPoint x="175" y="780" as="sourcePoint" />
            <mxPoint x="333" y="743" as="targetPoint" />
          </mxGeometry>
        </mxCell>
        <mxCell id="IsE3pLmWLLqJ610t_wqT-1" value="死亡产生凋落物" style="ellipse;whiteSpace=wrap;html=1;" vertex="1" parent="1">
          <mxGeometry x="320" y="870" width="120" height="80" as="geometry" />
        </mxCell>
        <mxCell id="IsE3pLmWLLqJ610t_wqT-2" value="" style="endArrow=classic;html=1;rounded=0;entryX=0;entryY=0.5;entryDx=0;entryDy=0;" edge="1" parent="1" target="IsE3pLmWLLqJ610t_wqT-1">
          <mxGeometry width="50" height="50" relative="1" as="geometry">
            <mxPoint x="170" y="770" as="sourcePoint" />
            <mxPoint x="330" y="830" as="targetPoint" />
          </mxGeometry>
        </mxCell>
      </root>
    </mxGraphModel>
  </diagram>
  <diagram id="ZA9gT-YQyxzPVsuqcRJF" name="第 3 页">
    <mxGraphModel dx="1434" dy="1907" grid="1" gridSize="10" guides="1" tooltips="1" connect="1" arrows="1" fold="1" page="1" pageScale="1" pageWidth="827" pageHeight="1169" math="0" shadow="0">
      <root>
        <mxCell id="0" />
        <mxCell id="1" parent="0" />
        <mxCell id="7MYmRwEFgoFABjWjGoOq-37" style="edgeStyle=orthogonalEdgeStyle;rounded=0;orthogonalLoop=1;jettySize=auto;html=1;" parent="1" source="7MYmRwEFgoFABjWjGoOq-2" target="7MYmRwEFgoFABjWjGoOq-3" edge="1">
          <mxGeometry relative="1" as="geometry" />
        </mxCell>
        <mxCell id="7MYmRwEFgoFABjWjGoOq-2" value="System&lt;div&gt;&lt;br&gt;&lt;/div&gt;" style="shape=umlActor;verticalLabelPosition=bottom;verticalAlign=top;html=1;outlineConnect=0;" parent="1" vertex="1">
          <mxGeometry x="70" y="-5" width="30" height="60" as="geometry" />
        </mxCell>
        <mxCell id="7MYmRwEFgoFABjWjGoOq-3" value="系统模块" style="rounded=0;whiteSpace=wrap;html=1;labelPosition=center;verticalLabelPosition=top;align=center;verticalAlign=bottom;fontSize=19;" parent="1" vertex="1">
          <mxGeometry x="200" y="-230" width="140" height="510" as="geometry" />
        </mxCell>
        <mxCell id="7MYmRwEFgoFABjWjGoOq-4" value="背景模块" style="ellipse;whiteSpace=wrap;html=1;" parent="1" vertex="1">
          <mxGeometry x="210" y="-220" width="120" height="80" as="geometry" />
        </mxCell>
        <mxCell id="7MYmRwEFgoFABjWjGoOq-6" value="对象池模块" style="ellipse;whiteSpace=wrap;html=1;" parent="1" vertex="1">
          <mxGeometry x="210" y="-120" width="120" height="80" as="geometry" />
        </mxCell>
        <mxCell id="7MYmRwEFgoFABjWjGoOq-7" value="管理器模块" style="ellipse;whiteSpace=wrap;html=1;" parent="1" vertex="1">
          <mxGeometry x="210" y="-20" width="120" height="80" as="geometry" />
        </mxCell>
        <mxCell id="7MYmRwEFgoFABjWjGoOq-8" value="UI控制器模块" style="ellipse;whiteSpace=wrap;html=1;" parent="1" vertex="1">
          <mxGeometry x="210" y="80" width="120" height="80" as="geometry" />
        </mxCell>
        <mxCell id="7MYmRwEFgoFABjWjGoOq-14" value="" style="rounded=1;whiteSpace=wrap;html=1;" parent="1" vertex="1">
          <mxGeometry x="430" y="-230" width="540" height="100" as="geometry" />
        </mxCell>
        <mxCell id="7MYmRwEFgoFABjWjGoOq-15" value="" style="endArrow=classic;html=1;rounded=0;exitX=1;exitY=0.5;exitDx=0;exitDy=0;entryX=0;entryY=0.5;entryDx=0;entryDy=0;" parent="1" source="7MYmRwEFgoFABjWjGoOq-4" target="7MYmRwEFgoFABjWjGoOq-14" edge="1">
          <mxGeometry width="50" height="50" relative="1" as="geometry">
            <mxPoint x="600" y="30" as="sourcePoint" />
            <mxPoint x="650" y="-20" as="targetPoint" />
          </mxGeometry>
        </mxCell>
        <mxCell id="7MYmRwEFgoFABjWjGoOq-19" value="构造" style="edgeLabel;html=1;align=center;verticalAlign=middle;resizable=0;points=[];fontSize=15;" parent="7MYmRwEFgoFABjWjGoOq-15" vertex="1" connectable="0">
          <mxGeometry x="-0.0506" relative="1" as="geometry">
            <mxPoint as="offset" />
          </mxGeometry>
        </mxCell>
        <mxCell id="7MYmRwEFgoFABjWjGoOq-16" value="背景限制移动" style="ellipse;whiteSpace=wrap;html=1;" parent="1" vertex="1">
          <mxGeometry x="450" y="-220" width="120" height="80" as="geometry" />
        </mxCell>
        <mxCell id="7MYmRwEFgoFABjWjGoOq-17" value="后处理效果" style="ellipse;whiteSpace=wrap;html=1;" parent="1" vertex="1">
          <mxGeometry x="580" y="-220" width="120" height="80" as="geometry" />
        </mxCell>
        <mxCell id="7MYmRwEFgoFABjWjGoOq-18" value="场景背景光" style="ellipse;whiteSpace=wrap;html=1;" parent="1" vertex="1">
          <mxGeometry x="707" y="-220" width="120" height="80" as="geometry" />
        </mxCell>
        <mxCell id="7MYmRwEFgoFABjWjGoOq-21" value="管理" style="endArrow=classic;html=1;rounded=0;exitX=1;exitY=0.5;exitDx=0;exitDy=0;entryX=0;entryY=0.5;entryDx=0;entryDy=0;fontSize=15;" parent="1" source="7MYmRwEFgoFABjWjGoOq-6" target="7MYmRwEFgoFABjWjGoOq-23" edge="1">
          <mxGeometry width="50" height="50" relative="1" as="geometry">
            <mxPoint x="340" y="-120" as="sourcePoint" />
            <mxPoint x="420" y="-80" as="targetPoint" />
          </mxGeometry>
        </mxCell>
        <mxCell id="7MYmRwEFgoFABjWjGoOq-23" value="" style="rounded=1;whiteSpace=wrap;html=1;" parent="1" vertex="1">
          <mxGeometry x="430" y="-130" width="540" height="100" as="geometry" />
        </mxCell>
        <mxCell id="7MYmRwEFgoFABjWjGoOq-24" value="子弹模块" style="ellipse;whiteSpace=wrap;html=1;" parent="1" vertex="1">
          <mxGeometry x="450" y="-120" width="120" height="80" as="geometry" />
        </mxCell>
        <mxCell id="7MYmRwEFgoFABjWjGoOq-25" value="特效模块" style="ellipse;whiteSpace=wrap;html=1;" parent="1" vertex="1">
          <mxGeometry x="580" y="-120" width="120" height="80" as="geometry" />
        </mxCell>
        <mxCell id="7MYmRwEFgoFABjWjGoOq-26" value="掉落物模块" style="ellipse;whiteSpace=wrap;html=1;" parent="1" vertex="1">
          <mxGeometry x="707" y="-120" width="120" height="80" as="geometry" />
        </mxCell>
        <mxCell id="7MYmRwEFgoFABjWjGoOq-27" value="" style="rounded=1;whiteSpace=wrap;html=1;" parent="1" vertex="1">
          <mxGeometry x="430" y="-30" width="540" height="100" as="geometry" />
        </mxCell>
        <mxCell id="7MYmRwEFgoFABjWjGoOq-28" value="生成" style="endArrow=classic;html=1;rounded=0;exitX=1;exitY=0.5;exitDx=0;exitDy=0;entryX=0;entryY=0.5;entryDx=0;entryDy=0;fontSize=15;" parent="1" source="7MYmRwEFgoFABjWjGoOq-7" target="7MYmRwEFgoFABjWjGoOq-27" edge="1">
          <mxGeometry width="50" height="50" relative="1" as="geometry">
            <mxPoint x="650" y="10" as="sourcePoint" />
            <mxPoint x="700" y="-40" as="targetPoint" />
          </mxGeometry>
        </mxCell>
        <mxCell id="7MYmRwEFgoFABjWjGoOq-29" value="音频管理" style="ellipse;whiteSpace=wrap;html=1;" parent="1" vertex="1">
          <mxGeometry x="450" y="-20" width="120" height="80" as="geometry" />
        </mxCell>
        <mxCell id="7MYmRwEFgoFABjWjGoOq-30" value="敌人管理" style="ellipse;whiteSpace=wrap;html=1;" parent="1" vertex="1">
          <mxGeometry x="580" y="-20" width="120" height="80" as="geometry" />
        </mxCell>
        <mxCell id="7MYmRwEFgoFABjWjGoOq-31" value="游戏状态管理" style="ellipse;whiteSpace=wrap;html=1;" parent="1" vertex="1">
          <mxGeometry x="707" y="-20" width="120" height="80" as="geometry" />
        </mxCell>
        <mxCell id="7MYmRwEFgoFABjWjGoOq-32" value="" style="rounded=1;whiteSpace=wrap;html=1;" parent="1" vertex="1">
          <mxGeometry x="430" y="70" width="540" height="100" as="geometry" />
        </mxCell>
        <mxCell id="7MYmRwEFgoFABjWjGoOq-33" value="血条" style="ellipse;whiteSpace=wrap;html=1;" parent="1" vertex="1">
          <mxGeometry x="450" y="80" width="120" height="80" as="geometry" />
        </mxCell>
        <mxCell id="7MYmRwEFgoFABjWjGoOq-34" value="按钮" style="ellipse;whiteSpace=wrap;html=1;" parent="1" vertex="1">
          <mxGeometry x="580" y="80" width="120" height="80" as="geometry" />
        </mxCell>
        <mxCell id="7MYmRwEFgoFABjWjGoOq-35" value="控制" style="endArrow=classic;html=1;rounded=0;exitX=1;exitY=0.5;exitDx=0;exitDy=0;fontSize=15;" parent="1" source="7MYmRwEFgoFABjWjGoOq-8" target="7MYmRwEFgoFABjWjGoOq-32" edge="1">
          <mxGeometry width="50" height="50" relative="1" as="geometry">
            <mxPoint x="340" y="60" as="sourcePoint" />
            <mxPoint x="440" y="40" as="targetPoint" />
          </mxGeometry>
        </mxCell>
        <mxCell id="7MYmRwEFgoFABjWjGoOq-36" value="UI输入" style="ellipse;whiteSpace=wrap;html=1;" parent="1" vertex="1">
          <mxGeometry x="707" y="80" width="120" height="80" as="geometry" />
        </mxCell>
        <mxCell id="7MYmRwEFgoFABjWjGoOq-38" value="功能模块" style="ellipse;whiteSpace=wrap;html=1;" parent="1" vertex="1">
          <mxGeometry x="210" y="180" width="120" height="80" as="geometry" />
        </mxCell>
        <mxCell id="7MYmRwEFgoFABjWjGoOq-40" value="" style="rounded=1;whiteSpace=wrap;html=1;" parent="1" vertex="1">
          <mxGeometry x="430" y="170" width="540" height="100" as="geometry" />
        </mxCell>
        <mxCell id="7MYmRwEFgoFABjWjGoOq-41" value="控制" style="endArrow=classic;html=1;rounded=0;exitX=1;exitY=0.5;exitDx=0;exitDy=0;fontSize=15;" parent="1" source="7MYmRwEFgoFABjWjGoOq-38" target="7MYmRwEFgoFABjWjGoOq-40" edge="1">
          <mxGeometry width="50" height="50" relative="1" as="geometry">
            <mxPoint x="340" y="150" as="sourcePoint" />
            <mxPoint x="440" y="147" as="targetPoint" />
          </mxGeometry>
        </mxCell>
        <mxCell id="7MYmRwEFgoFABjWjGoOq-42" value="定时销毁模块" style="ellipse;whiteSpace=wrap;html=1;" parent="1" vertex="1">
          <mxGeometry x="450" y="180" width="120" height="80" as="geometry" />
        </mxCell>
        <mxCell id="7MYmRwEFgoFABjWjGoOq-43" value="场景跳转控制器" style="ellipse;whiteSpace=wrap;html=1;" parent="1" vertex="1">
          <mxGeometry x="580" y="180" width="120" height="80" as="geometry" />
        </mxCell>
        <mxCell id="7MYmRwEFgoFABjWjGoOq-44" value="InputSystem" style="ellipse;whiteSpace=wrap;html=1;" parent="1" vertex="1">
          <mxGeometry x="707" y="180" width="120" height="80" as="geometry" />
        </mxCell>
        <mxCell id="7MYmRwEFgoFABjWjGoOq-45" value="卷轴滚动" style="ellipse;whiteSpace=wrap;html=1;" parent="1" vertex="1">
          <mxGeometry x="840" y="-220" width="120" height="80" as="geometry" />
        </mxCell>
        <mxCell id="7MYmRwEFgoFABjWjGoOq-46" value="子弹时间" style="ellipse;whiteSpace=wrap;html=1;" parent="1" vertex="1">
          <mxGeometry x="840" y="180" width="120" height="80" as="geometry" />
        </mxCell>
        <mxCell id="FG1QYczB5zocvL5G4_sW-1" value="得分管理" style="ellipse;whiteSpace=wrap;html=1;" vertex="1" parent="1">
          <mxGeometry x="840" y="-15" width="120" height="80" as="geometry" />
        </mxCell>
        <mxCell id="FG1QYczB5zocvL5G4_sW-3" value="敌人生成模块" style="ellipse;whiteSpace=wrap;html=1;" vertex="1" parent="1">
          <mxGeometry x="840" y="-120" width="120" height="80" as="geometry" />
        </mxCell>
      </root>
    </mxGraphModel>
  </diagram>
  <diagram id="C6xJBv7xsC9QlZwXb7bo" name="第 4 页">
    <mxGraphModel dx="1434" dy="738" grid="1" gridSize="10" guides="1" tooltips="1" connect="1" arrows="1" fold="1" page="1" pageScale="1" pageWidth="827" pageHeight="1169" math="0" shadow="0">
      <root>
        <mxCell id="0" />
        <mxCell id="1" parent="0" />
        <mxCell id="2lV4L3vjQ_lyDTL7-uun-1" value="AudioManager&lt;div&gt;&lt;br&gt;&lt;/div&gt;" style="shape=umlActor;verticalLabelPosition=bottom;verticalAlign=top;html=1;outlineConnect=0;" vertex="1" parent="1">
          <mxGeometry x="120" y="300" width="30" height="60" as="geometry" />
        </mxCell>
        <mxCell id="2lV4L3vjQ_lyDTL7-uun-2" value="播放单次音效" style="ellipse;whiteSpace=wrap;html=1;" vertex="1" parent="1">
          <mxGeometry x="260" y="170" width="120" height="80" as="geometry" />
        </mxCell>
        <mxCell id="2lV4L3vjQ_lyDTL7-uun-3" value="循环播放音效" style="ellipse;whiteSpace=wrap;html=1;" vertex="1" parent="1">
          <mxGeometry x="260" y="300" width="120" height="80" as="geometry" />
        </mxCell>
        <mxCell id="2lV4L3vjQ_lyDTL7-uun-4" value="随机播放一个音效数组中的音效" style="ellipse;whiteSpace=wrap;html=1;" vertex="1" parent="1">
          <mxGeometry x="260" y="440" width="120" height="80" as="geometry" />
        </mxCell>
        <mxCell id="2lV4L3vjQ_lyDTL7-uun-5" value="" style="endArrow=classic;html=1;rounded=0;exitX=0.5;exitY=0.5;exitDx=0;exitDy=0;exitPerimeter=0;entryX=0;entryY=0.5;entryDx=0;entryDy=0;" edge="1" parent="1" source="2lV4L3vjQ_lyDTL7-uun-1" target="2lV4L3vjQ_lyDTL7-uun-2">
          <mxGeometry width="50" height="50" relative="1" as="geometry">
            <mxPoint x="430" y="390" as="sourcePoint" />
            <mxPoint x="480" y="340" as="targetPoint" />
          </mxGeometry>
        </mxCell>
        <mxCell id="2lV4L3vjQ_lyDTL7-uun-6" value="" style="endArrow=classic;html=1;rounded=0;exitX=0.5;exitY=0.5;exitDx=0;exitDy=0;exitPerimeter=0;entryX=0;entryY=0.5;entryDx=0;entryDy=0;" edge="1" parent="1" source="2lV4L3vjQ_lyDTL7-uun-1" target="2lV4L3vjQ_lyDTL7-uun-3">
          <mxGeometry width="50" height="50" relative="1" as="geometry">
            <mxPoint x="430" y="390" as="sourcePoint" />
            <mxPoint x="480" y="340" as="targetPoint" />
          </mxGeometry>
        </mxCell>
        <mxCell id="2lV4L3vjQ_lyDTL7-uun-7" value="" style="endArrow=classic;html=1;rounded=0;exitX=0.5;exitY=0.5;exitDx=0;exitDy=0;exitPerimeter=0;entryX=0;entryY=0.5;entryDx=0;entryDy=0;" edge="1" parent="1" source="2lV4L3vjQ_lyDTL7-uun-1" target="2lV4L3vjQ_lyDTL7-uun-4">
          <mxGeometry width="50" height="50" relative="1" as="geometry">
            <mxPoint x="430" y="390" as="sourcePoint" />
            <mxPoint x="480" y="340" as="targetPoint" />
          </mxGeometry>
        </mxCell>
      </root>
    </mxGraphModel>
  </diagram>
  <diagram id="g_Pc0DZ1Idfmm86iS6BO" name="第 5 页">
    <mxGraphModel dx="472" dy="580" grid="1" gridSize="10" guides="1" tooltips="1" connect="1" arrows="1" fold="1" page="1" pageScale="1" pageWidth="827" pageHeight="1169" math="0" shadow="0">
      <root>
        <mxCell id="0" />
        <mxCell id="1" parent="0" />
        <mxCell id="WrFATEaiytabAGUXudXt-5" value="波数++" style="strokeWidth=2;html=1;shape=mxgraph.flowchart.decision;whiteSpace=wrap;" vertex="1" parent="1">
          <mxGeometry x="354" y="420" width="100" height="50" as="geometry" />
        </mxCell>
        <mxCell id="WrFATEaiytabAGUXudXt-11" style="edgeStyle=orthogonalEdgeStyle;rounded=0;orthogonalLoop=1;jettySize=auto;html=1;" edge="1" parent="1" source="WrFATEaiytabAGUXudXt-6" target="WrFATEaiytabAGUXudXt-7">
          <mxGeometry relative="1" as="geometry">
            <Array as="points">
              <mxPoint x="414" y="140" />
              <mxPoint x="414" y="140" />
            </Array>
          </mxGeometry>
        </mxCell>
        <mxCell id="WrFATEaiytabAGUXudXt-6" value="开始" style="rounded=1;whiteSpace=wrap;html=1;" vertex="1" parent="1">
          <mxGeometry x="354" y="60" width="120" height="60" as="geometry" />
        </mxCell>
        <mxCell id="WrFATEaiytabAGUXudXt-13" style="edgeStyle=orthogonalEdgeStyle;rounded=0;orthogonalLoop=1;jettySize=auto;html=1;" edge="1" parent="1" source="WrFATEaiytabAGUXudXt-7" target="WrFATEaiytabAGUXudXt-12">
          <mxGeometry relative="1" as="geometry" />
        </mxCell>
        <mxCell id="WrFATEaiytabAGUXudXt-7" value="获取波数变量值" style="shape=parallelogram;perimeter=parallelogramPerimeter;whiteSpace=wrap;html=1;fixedSize=1;" vertex="1" parent="1">
          <mxGeometry x="344" y="150" width="120" height="60" as="geometry" />
        </mxCell>
        <mxCell id="WrFATEaiytabAGUXudXt-8" value="" style="edgeStyle=segmentEdgeStyle;endArrow=classic;html=1;curved=0;rounded=0;endSize=8;startSize=8;exitX=1;exitY=0.5;exitDx=0;exitDy=0;exitPerimeter=0;" edge="1" parent="1" source="WrFATEaiytabAGUXudXt-5" target="WrFATEaiytabAGUXudXt-7">
          <mxGeometry width="50" height="50" relative="1" as="geometry">
            <mxPoint x="560" y="370" as="sourcePoint" />
            <mxPoint x="610" y="320" as="targetPoint" />
            <Array as="points">
              <mxPoint x="610" y="445" />
              <mxPoint x="610" y="180" />
            </Array>
          </mxGeometry>
        </mxCell>
        <mxCell id="WrFATEaiytabAGUXudXt-9" value="结束" style="rounded=1;whiteSpace=wrap;html=1;" vertex="1" parent="1">
          <mxGeometry x="344" y="500" width="120" height="60" as="geometry" />
        </mxCell>
        <mxCell id="WrFATEaiytabAGUXudXt-10" value="" style="endArrow=classic;html=1;rounded=0;exitX=0.5;exitY=1;exitDx=0;exitDy=0;exitPerimeter=0;" edge="1" parent="1" source="WrFATEaiytabAGUXudXt-5" target="WrFATEaiytabAGUXudXt-9">
          <mxGeometry width="50" height="50" relative="1" as="geometry">
            <mxPoint x="560" y="500" as="sourcePoint" />
            <mxPoint x="610" y="450" as="targetPoint" />
          </mxGeometry>
        </mxCell>
        <mxCell id="WrFATEaiytabAGUXudXt-12" value="播放波数动画" style="rounded=0;whiteSpace=wrap;html=1;" vertex="1" parent="1">
          <mxGeometry x="344" y="240" width="120" height="60" as="geometry" />
        </mxCell>
        <mxCell id="WrFATEaiytabAGUXudXt-14" value="释放对象池敌人" style="strokeWidth=2;html=1;shape=mxgraph.flowchart.decision;whiteSpace=wrap;" vertex="1" parent="1">
          <mxGeometry x="354" y="330" width="100" height="50" as="geometry" />
        </mxCell>
        <mxCell id="WrFATEaiytabAGUXudXt-15" style="edgeStyle=orthogonalEdgeStyle;rounded=0;orthogonalLoop=1;jettySize=auto;html=1;entryX=0.5;entryY=0;entryDx=0;entryDy=0;entryPerimeter=0;" edge="1" parent="1" source="WrFATEaiytabAGUXudXt-12" target="WrFATEaiytabAGUXudXt-14">
          <mxGeometry relative="1" as="geometry" />
        </mxCell>
        <mxCell id="WrFATEaiytabAGUXudXt-16" style="edgeStyle=orthogonalEdgeStyle;rounded=0;orthogonalLoop=1;jettySize=auto;html=1;entryX=0.5;entryY=0;entryDx=0;entryDy=0;entryPerimeter=0;" edge="1" parent="1" source="WrFATEaiytabAGUXudXt-14" target="WrFATEaiytabAGUXudXt-5">
          <mxGeometry relative="1" as="geometry" />
        </mxCell>
      </root>
    </mxGraphModel>
  </diagram>
</mxfile>
